# xmcd CD database file
# Copyright (C) 1993-1996 Ti Kan
#
# Track frame offsets:
#  150
#  3236
#  12780
#  30335
#  40898
#  57957
#  73468
#  94861
#  111638
#  124639
#  138966
#  150764
#  166648
#  176522
#  192761
#  202364
#  218483
#  231089
#  247915
#  260678
#  275150
#  291490
#  302586
#  319424
#  333953
#  343787
#  346465
#
# Disc length: 4796 seconds
#
# Revision: 1
# Processed by: cddbd v1.5.2PL0 Copyright (c) Steve Scherf et al.
# Submitted via: Advanced CD Ripper Pro 2.0
#
DISCID=8d12ba1b
DTITLE=Various Artist - Country - Music History - CD1
DYEAR=2003
DGENRE=Other
TTITLE0=Saloon Brawl
TTITLE1=Killbilly - To Come Undone
TTITLE2=Tim McGraw - I Like It, I Love It (Club Mix)
TTITLE3=Steven Seagal and Marty Stuart - Give Me Back My Heart
TTITLE4=Kimber Clayton - Jose Cuervo (Tequila Mix)
TTITLE5=Kenny Rogers - The Gambler
TTITLE6=Chely Wright - Sea Of Cowboy Hats
TTITLE7=Kenny Rogers - Lady
TTITLE8=Killbilly - Muddy Rio Grande
TTITLE9=Rednex - Cotton Eyed Joe
TTITLE10=Trisha Yearwood - That's What I Like About You
TTITLE11=Boy Howdy - Bigger Fish To Fry (Dance Mix)
TTITLE12=Creedence Clearwater Revival - Hello Mary Lou
TTITLE13=Killbilly - Hang My Head
TTITLE14=Green - Six Days On The Road
TTITLE15=Mark Knopfler - Cannibals
TTITLE16=Killbilly - Maggie Won't You Go
TTITLE17=Rednex - Shooter
TTITLE18=Reba McEntire - Climb That Mountain High
TTITLE19=Delbert McClinton - Why Me?
TTITLE20=Willie Nelson - The Golden Clips
TTITLE21=Alan Jackson - Chattahoochee
TTITLE22=The Shadows - Apache
TTITLE23=Trisha Yearwood - You Done Me Wrong (And That Ain't Right)
TTITLE24=Johnny Cash - Hey Porter
TTITLE25=Stampede
TTITLE26=Ennio Morricone - The Good, The Bad and The Ugly
EXTD=
EXTT0=
EXTT1=
EXTT2=
EXTT3=
EXTT4=
EXTT5=
EXTT6=
EXTT7=
EXTT8=
EXTT9=
EXTT10=
EXTT11=
EXTT12=
EXTT13=
EXTT14=
EXTT15=
EXTT16=
EXTT17=
EXTT18=
EXTT19=
EXTT20=
EXTT21=
EXTT22=
EXTT23=
EXTT24=
EXTT25=
EXTT26=
PLAYORDER=
